<?xml version="1.0" encoding="UTF-8"?>
<svg id="Layer_1_Image" data-name="Layer 1 Image" xmlns="http://www.w3.org/2000/svg" viewBox="0 0 11.24 8.72">
  <defs>
    <style>
      .cls-1 {
        fill: #24b7dc;
        stroke-width: 0px;
      }
    </style>
  </defs>
  <path class="cls-1" d="m8.22,8.62c-.86-.11-1.65.19-2.39-.26-.22-.14-.41.06-.61.12-.97.28-2.04.4-2.86-.13C.72,7.29-.56,5.17.25,2.83.72,1.49,1.6.5,2.96.16c2.66-.67,4.71,1.42,4.81,3.83.03.8.03,1.58-.48,2.28-.22.3-.17.7.1.93.44.37.49.9.82,1.43Z"/>
  <path class="cls-1" d="m11.24,2.39c-.17.91-.38,1.96-1.02,2.87-.33.48-.47.89.06,1.38.51.47.43,1.31-.16,1.81-.41.35-.91.27-1.31-.08-.43-.38-.5-1.41-.03-1.78.54-.43.46-.8.13-1.27-.86-1.23-.82-2.66-.74-4.05.03-.55.47-1.09,1.13-1.24.64-.15,1.11.19,1.46.64.33.44.49.98.48,1.72Z"/>
</svg>